<svg enable-background="new 0 0 256 256" height="256" viewBox="0 0 256 256" width="256" xmlns="http://www.w3.org/2000/svg"><path d="m129.195 255.264c-4.336 0-8.133-2.91-9.261-7.099l-18.06-67.08-27.773 15.99c-1.494.86-3.144 1.28-4.783 1.28-2.482 0-4.938-.963-6.785-2.811-3.067-3.066-3.694-7.811-1.53-11.566l16.146-28.045-67.194-18.09c-4.188-1.128-7.098-4.925-7.098-9.262s2.91-8.134 7.098-9.262l67.152-18.08-16.103-27.966c-2.164-3.758-1.537-8.501 1.53-11.568 1.847-1.847 4.303-2.809 6.785-2.809 1.639 0 3.288.419 4.783 1.279l28.321 16.306 18.303-67.979c1.128-4.188 4.925-7.098 9.262-7.098s8.134 2.91 9.262 7.098l18.159 67.45 27.399-15.776c1.493-.86 3.145-1.279 4.782-1.279 2.481 0 4.938.962 6.785 2.809 3.065 3.066 3.692 7.81 1.53 11.568l-15.725 27.311 67.258 18.109c4.188 1.128 7.099 4.925 7.099 9.262s-2.909 8.134-7.099 9.262l-67.93 18.288 16.395 28.475c2.164 3.759 1.537 8.502-1.529 11.567-1.848 1.847-4.305 2.81-6.785 2.81-1.639 0-3.288-.418-4.783-1.278l-28.22-16.248-18.129 67.337c-1.127 4.185-4.924 7.095-9.262 7.095z" fill="#d1d1d1"/><path d="m166.979 149.484 79.97-21.53-79.3-21.351 21.945-38.116-38.205 21.998-21.4-79.49-21.544 80.019-39.129-22.527 22.324 38.773-79.191 21.321 79.234 21.333-22.367 38.85 38.579-22.214 21.3 79.121 21.371-79.377 39.025 22.47zm-37.52-12.296c2.366-.002 4.508-.963 6.057-2.517l43.603 43.604-49.658-30.197zm97.102-9.234-63.121 15.383-8.471-14.711.387-.672zm-77.647.67h-10.898c0-2.363-.959-4.502-2.508-6.051l43.605-43.609zm-3.66-34.607-15.261 8.786v-71.407zm-15.798 15.147v10.902c-2.365 0-4.505.958-6.054 2.507l-43.604-43.609zm-34.286 4.228 8.746 15.19h-71.081zm-15.367 64.881 30.197-49.657h10.895v.01c0 2.362.958 4.501 2.503 6.051l-13.094 13.095-.034-.138-5.887 5.888.003.004.035.129zm34.219-15.25 15.167-8.733v70.981z" fill="#464646"/></svg>