<svg height="48pt" viewBox="0 0 48 48" width="48pt" xmlns="http://www.w3.org/2000/svg" xmlns:xlink="http://www.w3.org/1999/xlink"><linearGradient id="a" gradientUnits="userSpaceOnUse" x1="12.1875" x2="49.15758" y1="10.35315" y2="49.963308"><stop offset="0" stop-color="#fccb90"/><stop offset=".83913043478" stop-color="#d57eeb"/></linearGradient><path d="m7.999512 3c-2.7600003 0-4.999512 2.24098-4.999512 5.00098v18c0 1.104.8955117 1.99952 1.9995117 1.99952s2.0009766-.89552 2.0009766-1.99952v-16.00048c0-1.656 1.3439997-3 2.9999997-3h15.999024c1.104 0 2.000976-.89552 2.000976-1.99952s-.896976-2.00098-2.000976-2.00098zm27 0c-1.104 0-1.999512.89698-1.999512 2.00098s.895512 1.99952 1.999512 1.99952h3c1.656 0 3 1.344 3 3v3c0 1.104.896976 1.9995 2.000976 1.9995s1.999512-.8955 1.999512-1.9995v-4.99952c0-2.76-2.239512-5.00098-4.999512-5.00098zm-12.052735 6.81885-11.491698 6.63428v13.27002l4.39453-2.53711.02344-5.24121c.001-.1937.13651-.27189.304687-.17578l5.305664 3.03222c.168176.0961.302598.32925.301758.52296l-.02637 6.10986c-.001.1937-.137978.2719-.306152.17578l-4.54834-2.6001-4.395996 2.53857 11.491699 6.63428 11.4917-6.63428-4.395996-2.53857-4.548341 2.6001c-.168174.0961-.30384.0179-.304687-.17578l-.02783-6.10986c-.001-.19371.133584-.42684.301758-.52296l5.305664-3.03222c.168176-.0961.30384-.0179.304688.17578l.02344 5.24121 4.394531 2.53711v-13.27002l-11.491699-6.63428v5.07569l4.526367 2.63965c.16733.0975.16733.25397 0 .35156l-5.277832 3.0791c-.16733.0975-.436186.0975-.603516 0l-5.277832-3.0791c-.167331-.0975-.167331-.25397 0-.35156l4.526367-2.63965zm20.053711 10.18213c-1.104 0-2.000976.89552-2.000976 1.99952v16.00048c0 1.656-1.344 3-3 3h-15.999024c-1.104 0-2.000976.89552-2.000976 1.99952s.896976 1.9995 2.000976 1.9995h18c2.76 0 4.999512-2.2395 4.999512-4.9995v-18c0-1.104-.895512-1.99952-1.999512-1.99952zm-38.0009763 12.99902c-1.104 0-1.9995117.89698-1.9995117 2.00098v4.99952c0 2.76 2.2395117 4.9995 4.999512 4.9995h5.000976c1.104 0 1.999512-.8955 1.999512-1.9995s-.895512-1.99952-1.999512-1.99952h-3c-1.656 0-2.9999997-1.344-2.9999997-3v-3c0-1.104-.8969766-2.00098-2.0009766-2.00098z" fill="url(#a)" stroke-width=".999997"/></svg>